<svg width="55" height="55" viewBox="0 0 55 55" fill="none" xmlns="http://www.w3.org/2000/svg">
<path d="M27.5 5.5C15.3505 5.5 5.5 15.3505 5.5 27.5C5.5 37.8088 12.5987 46.4347 22.1687 48.8217C22.066 48.5247 22 48.18 22 47.7528V43.9927C21.1072 43.9927 19.6112 43.9927 19.2353 43.9927C17.7302 43.9927 16.3918 43.3455 15.7428 42.1428C15.0223 40.8063 14.8977 38.7622 13.112 37.5118C12.5822 37.0957 12.9855 36.6208 13.596 36.685C14.7235 37.004 15.6585 37.7777 16.5385 38.9253C17.4148 40.0748 17.8273 40.3352 19.4645 40.3352C20.2583 40.3352 21.4463 40.2893 22.5647 40.1133C23.166 38.5862 24.2055 37.18 25.476 36.5163C18.15 35.7628 14.6538 32.1182 14.6538 27.17C14.6538 25.0397 15.5613 22.979 17.1032 21.2428C16.5972 19.5195 15.961 16.005 17.2975 14.6667C20.5938 14.6667 22.5867 16.8043 23.0652 17.3818C24.7078 16.819 26.5118 16.5 28.4075 16.5C30.3068 16.5 32.1182 16.819 33.7645 17.3855C34.2375 16.8117 36.2322 14.6667 39.5358 14.6667C40.8778 16.0068 40.2343 19.536 39.7228 21.2557C41.2555 22.9882 42.1575 25.0433 42.1575 27.17C42.1575 32.1145 38.6668 35.7573 31.3518 36.5145C33.3648 37.565 34.8333 40.5167 34.8333 42.7405V47.7528C34.8333 47.9435 34.7912 48.081 34.7692 48.2442C43.3418 45.2393 49.5 37.0993 49.5 27.5C49.5 15.3505 39.6495 5.5 27.5 5.5Z" fill="#E87A30"/>
</svg>
